<svg width="46" height="5" viewBox="0 0 46 5" fill="none" xmlns="http://www.w3.org/2000/svg">
<path d="M3.08911 2.78125H1.40161V4.52441H0.522705V0.258789H3.30005V0.970703H1.40161V2.07227H3.08911V2.78125ZM7.31372 2.48828C7.31372 2.9082 7.2395 3.27637 7.09106 3.59277C6.94263 3.90918 6.72974 4.15332 6.45239 4.3252C6.177 4.49707 5.8606 4.58301 5.50317 4.58301C5.14966 4.58301 4.83423 4.49805 4.55688 4.32812C4.27954 4.1582 4.0647 3.91602 3.91235 3.60156C3.76001 3.28516 3.68286 2.92188 3.68091 2.51172V2.30078C3.68091 1.88086 3.7561 1.51172 3.90649 1.19336C4.05884 0.873047 4.27271 0.62793 4.5481 0.458008C4.82544 0.286133 5.14185 0.200195 5.49731 0.200195C5.85278 0.200195 6.16821 0.286133 6.4436 0.458008C6.72095 0.62793 6.93481 0.873047 7.08521 1.19336C7.23755 1.51172 7.31372 1.87988 7.31372 2.29785V2.48828ZM6.4231 2.29492C6.4231 1.84766 6.34302 1.50781 6.18286 1.27539C6.02271 1.04297 5.79419 0.926758 5.49731 0.926758C5.20239 0.926758 4.97485 1.04199 4.8147 1.27246C4.65454 1.50098 4.57349 1.83691 4.57153 2.28027V2.48828C4.57153 2.92383 4.65161 3.26172 4.81177 3.50195C4.97192 3.74219 5.20239 3.8623 5.50317 3.8623C5.7981 3.8623 6.02466 3.74707 6.18286 3.5166C6.34106 3.28418 6.42114 2.94629 6.4231 2.50293V2.29492ZM10.1643 3.40527C10.1643 3.23926 10.1057 3.1123 9.98853 3.02441C9.87134 2.93457 9.6604 2.84082 9.35571 2.74316C9.05103 2.64355 8.80981 2.5459 8.63208 2.4502C8.14771 2.18848 7.90552 1.83594 7.90552 1.39258C7.90552 1.16211 7.96997 0.957031 8.09888 0.777344C8.22974 0.595703 8.41626 0.454102 8.65845 0.352539C8.90259 0.250977 9.17603 0.200195 9.47876 0.200195C9.78345 0.200195 10.0549 0.255859 10.2932 0.367188C10.5315 0.476562 10.7161 0.631836 10.8469 0.833008C10.9797 1.03418 11.0461 1.2627 11.0461 1.51855H10.1672C10.1672 1.32324 10.1057 1.17188 9.98267 1.06445C9.85962 0.955078 9.68677 0.900391 9.46411 0.900391C9.24927 0.900391 9.08228 0.946289 8.96313 1.03809C8.84399 1.12793 8.78442 1.24707 8.78442 1.39551C8.78442 1.53418 8.85376 1.65039 8.99243 1.74414C9.13306 1.83789 9.33911 1.92578 9.6106 2.00781C10.1106 2.1582 10.4749 2.34473 10.7034 2.56738C10.9319 2.79004 11.0461 3.06738 11.0461 3.39941C11.0461 3.76855 10.9065 4.05859 10.6272 4.26953C10.3479 4.47852 9.97192 4.58301 9.49927 4.58301C9.17114 4.58301 8.87231 4.52344 8.60278 4.4043C8.33325 4.2832 8.1272 4.11816 7.98462 3.90918C7.84399 3.7002 7.77368 3.45801 7.77368 3.18262H8.65552C8.65552 3.65332 8.93677 3.88867 9.49927 3.88867C9.70825 3.88867 9.87134 3.84668 9.98853 3.7627C10.1057 3.67676 10.1643 3.55762 10.1643 3.40527ZM14.8547 0.970703H13.5481V4.52441H12.6692V0.970703H11.3801V0.258789H14.8547V0.970703ZM17.925 2.67578H16.2375V3.81836H18.218V4.52441H15.3586V0.258789H18.2122V0.970703H16.2375V1.9873H17.925V2.67578ZM20.3127 2.96289H19.6125V4.52441H18.7336V0.258789H20.3186C20.8225 0.258789 21.2112 0.371094 21.4846 0.595703C21.7581 0.820312 21.8948 1.1377 21.8948 1.54785C21.8948 1.83887 21.8313 2.08203 21.7043 2.27734C21.5793 2.4707 21.3889 2.625 21.1331 2.74023L22.0559 4.4834V4.52441H21.1125L20.3127 2.96289ZM19.6125 2.25098H20.3215C20.5422 2.25098 20.7131 2.19531 20.8342 2.08398C20.9553 1.9707 21.0159 1.81543 21.0159 1.61816C21.0159 1.41699 20.9583 1.25879 20.843 1.14355C20.7297 1.02832 20.5549 0.970703 20.3186 0.970703H19.6125V2.25098ZM24.9387 3.02148V4.52441H24.0598V0.258789H25.7239C26.0442 0.258789 26.3254 0.317383 26.5676 0.43457C26.8118 0.551758 26.9993 0.71875 27.1301 0.935547C27.261 1.15039 27.3264 1.39551 27.3264 1.6709C27.3264 2.08887 27.1829 2.41895 26.8958 2.66113C26.6106 2.90137 26.2151 3.02148 25.7092 3.02148H24.9387ZM24.9387 2.30957H25.7239C25.9563 2.30957 26.1331 2.25488 26.2542 2.14551C26.3772 2.03613 26.4387 1.87988 26.4387 1.67676C26.4387 1.46777 26.3772 1.29883 26.2542 1.16992C26.1311 1.04102 25.9612 0.974609 25.7444 0.970703H24.9387V2.30957ZM30.4993 2.67578H28.8118V3.81836H30.7922V4.52441H27.9329V0.258789H30.7864V0.970703H28.8118V1.9873H30.4993V2.67578ZM34.5774 0.970703H33.2708V4.52441H32.3918V0.970703H31.1028V0.258789H34.5774V0.970703ZM37.6477 2.67578H35.9602V3.81836H37.9407V4.52441H35.0813V0.258789H37.9348V0.970703H35.9602V1.9873H37.6477V2.67578ZM40.0354 2.96289H39.3352V4.52441H38.4563V0.258789H40.0413C40.5452 0.258789 40.9338 0.371094 41.2073 0.595703C41.4807 0.820312 41.6174 1.1377 41.6174 1.54785C41.6174 1.83887 41.554 2.08203 41.427 2.27734C41.302 2.4707 41.1116 2.625 40.8557 2.74023L41.7786 4.4834V4.52441H40.8352L40.0354 2.96289ZM39.3352 2.25098H40.0442C40.2649 2.25098 40.4358 2.19531 40.5569 2.08398C40.678 1.9707 40.7385 1.81543 40.7385 1.61816C40.7385 1.41699 40.6809 1.25879 40.5657 1.14355C40.4524 1.02832 40.2776 0.970703 40.0413 0.970703H39.3352V2.25098ZM44.5002 3.40527C44.5002 3.23926 44.4417 3.1123 44.3245 3.02441C44.2073 2.93457 43.9963 2.84082 43.6917 2.74316C43.387 2.64355 43.1458 2.5459 42.968 2.4502C42.4836 2.18848 42.2415 1.83594 42.2415 1.39258C42.2415 1.16211 42.3059 0.957031 42.4348 0.777344C42.5657 0.595703 42.7522 0.454102 42.9944 0.352539C43.2385 0.250977 43.512 0.200195 43.8147 0.200195C44.1194 0.200195 44.3909 0.255859 44.6292 0.367188C44.8674 0.476562 45.052 0.631836 45.1829 0.833008C45.3157 1.03418 45.3821 1.2627 45.3821 1.51855H44.5032C44.5032 1.32324 44.4417 1.17188 44.3186 1.06445C44.1956 0.955078 44.0227 0.900391 43.8 0.900391C43.5852 0.900391 43.4182 0.946289 43.2991 1.03809C43.1799 1.12793 43.1204 1.24707 43.1204 1.39551C43.1204 1.53418 43.1897 1.65039 43.3284 1.74414C43.469 1.83789 43.675 1.92578 43.9465 2.00781C44.4465 2.1582 44.8108 2.34473 45.0393 2.56738C45.2678 2.79004 45.3821 3.06738 45.3821 3.39941C45.3821 3.76855 45.2424 4.05859 44.9631 4.26953C44.6838 4.47852 44.3079 4.58301 43.8352 4.58301C43.5071 4.58301 43.2083 4.52344 42.9387 4.4043C42.6692 4.2832 42.4631 4.11816 42.3206 3.90918C42.1799 3.7002 42.1096 3.45801 42.1096 3.18262H42.9915C42.9915 3.65332 43.2727 3.88867 43.8352 3.88867C44.0442 3.88867 44.2073 3.84668 44.3245 3.7627C44.4417 3.67676 44.5002 3.55762 44.5002 3.40527Z" fill="#AFB1B8"/>
</svg>
